<svg xmlns="http://www.w3.org/2000/svg" viewBox="0 0 64 64">
  <!-- Wilbeth-Logo: 6x6-Wochenmatrix auf transparentem Grund, Accent-Zellen formen ein "W".
       Farben funktionieren auf hellem UND dunklem Untergrund (Sidebar ist dunkel, Tab meist hell). -->
  <g fill="#a7b0bf">
    <rect x="2" y="2" width="8.4" height="8.4" rx="2.2"/><rect x="12.4" y="2" width="8.4" height="8.4" rx="2.2"/><rect x="22.8" y="2" width="8.4" height="8.4" rx="2.2"/><rect x="33.2" y="2" width="8.4" height="8.4" rx="2.2"/><rect x="43.6" y="2" width="8.4" height="8.4" rx="2.2"/><rect x="54" y="2" width="8.4" height="8.4" rx="2.2"/>
    <rect x="12.4" y="12.4" width="8.4" height="8.4" rx="2.2"/><rect x="22.8" y="12.4" width="8.4" height="8.4" rx="2.2"/><rect x="33.2" y="12.4" width="8.4" height="8.4" rx="2.2"/><rect x="43.6" y="12.4" width="8.4" height="8.4" rx="2.2"/>
    <rect x="12.4" y="22.8" width="8.4" height="8.4" rx="2.2"/><rect x="22.8" y="22.8" width="8.4" height="8.4" rx="2.2"/><rect x="33.2" y="22.8" width="8.4" height="8.4" rx="2.2"/><rect x="43.6" y="22.8" width="8.4" height="8.4" rx="2.2"/>
    <rect x="12.4" y="33.2" width="8.4" height="8.4" rx="2.2"/><rect x="43.6" y="33.2" width="8.4" height="8.4" rx="2.2"/>
    <rect x="12.4" y="43.6" width="8.4" height="8.4" rx="2.2"/><rect x="43.6" y="43.6" width="8.4" height="8.4" rx="2.2"/>
    <rect x="2" y="54" width="8.4" height="8.4" rx="2.2"/><rect x="22.8" y="54" width="8.4" height="8.4" rx="2.2"/><rect x="33.2" y="54" width="8.4" height="8.4" rx="2.2"/><rect x="54" y="54" width="8.4" height="8.4" rx="2.2"/>
  </g>
  <g fill="#1b61c9">
    <rect x="2" y="12.4" width="8.4" height="8.4" rx="2.2"/><rect x="54" y="12.4" width="8.4" height="8.4" rx="2.2"/>
    <rect x="2" y="22.8" width="8.4" height="8.4" rx="2.2"/><rect x="54" y="22.8" width="8.4" height="8.4" rx="2.2"/>
    <rect x="2" y="33.2" width="8.4" height="8.4" rx="2.2"/><rect x="22.8" y="33.2" width="8.4" height="8.4" rx="2.2"/><rect x="33.2" y="33.2" width="8.4" height="8.4" rx="2.2"/><rect x="54" y="33.2" width="8.4" height="8.4" rx="2.2"/>
    <rect x="2" y="43.6" width="8.4" height="8.4" rx="2.2"/><rect x="22.8" y="43.6" width="8.4" height="8.4" rx="2.2"/><rect x="33.2" y="43.6" width="8.4" height="8.4" rx="2.2"/><rect x="54" y="43.6" width="8.4" height="8.4" rx="2.2"/>
    <rect x="12.4" y="54" width="8.4" height="8.4" rx="2.2"/><rect x="43.6" y="54" width="8.4" height="8.4" rx="2.2"/>
  </g>
</svg>
