<svg xmlns="http://www.w3.org/2000/svg" viewBox="0 0 64 64">
  <!-- Wilbeth-Logo: kalligraphisches Serifen-W (Playfair Display SemiBold, SIL OFL)
       auf transparentem Grund; leichter Stroke stabilisiert die Haarlinien im Favicon. -->
  <g transform="translate(3.615,53.261) scale(0.06032,-0.06032)">
    <path d="M951.4027099609375 708V688Q930.8026123046875 681.1998291015625 907.0025634765625 657.2994995117188Q883.2025146484375 633.399169921875 866.8023681640625 579.7987060546875L686.202880859375 -2.9998779296875Q680.20263671875 -2.599853515625 673.6023559570312 -2.39984130859375Q667.0020751953125 -2.1998291015625 660.2017822265625 -2.1998291015625Q653.801513671875 -2.1998291015625 647.2012329101562 -2.39984130859375Q640.6009521484375 -2.599853515625 634.6007080078125 -2.9998779296875L423.4007568359375 630.8004150390625Q412.40087890625 664.60009765625 397.6009521484375 675.800048828125Q382.801025390625 687 367.6009521484375 688V708Q392.0013427734375 707 426.601806640625 706.0Q461.2022705078125 705 495.0028076171875 705Q537.2030029296875 705 574.2031860351562 706.0Q611.203369140625 707 633.803466796875 708V688Q603.4034423828125 687 586.1034545898438 681.3999633789062Q568.803466796875 675.7999267578125 566.303466796875 658.5999145507812Q563.803466796875 641.39990234375 575.803466796875 604L720.003173828125 161.0010986328125L700.0028076171875 129.39990234375L819.60205078125 507.59765625Q841.602294921875 576.198486328125 840.3023071289062 615.0989990234375Q839.0023193359375 653.99951171875 817.2022705078125 670.499755859375Q795.4022216796875 687 754.2022705078125 688V708Q786.802490234375 707 816.6024780273438 706.0Q846.4024658203125 705 875.6026611328125 705Q899.2025146484375 705 917.8026123046875 706.0Q936.4027099609375 707 951.4027099609375 708ZM242.8021240234375 708V688Q220.40234375 685.5999755859375 211.302490234375 674.9998168945312Q202.20263671875 664.399658203125 203.502685546875 646.4996337890625Q204.802734375 628.599609375 212.8026123046875 604L366.2025146484375 150.201171875L340.00244140625 118.000732421875L472.001953125 516.19775390625L486.6019287109375 490.1976318359375L326.4022216796875 -2.9998779296875Q320.4019775390625 -2.599853515625 313.80169677734375 -2.39984130859375Q307.201416015625 -2.1998291015625 300.401123046875 -2.1998291015625Q294.0008544921875 -2.1998291015625 287.40057373046875 -2.39984130859375Q280.80029296875 -2.599853515625 274.800048828125 -2.9998779296875L54.799560546875 624Q41.799560546875 661.39990234375 23.399658203125 674.199951171875Q4.999755859375 687 -10.2001953125 688V708Q16.2001953125 707 53.3006591796875 706.0Q90.401123046875 705 124.801513671875 705Q162.2017822265625 705 192.90191650390625 706.0Q223.60205078125 707 242.8021240234375 708Z" fill="#1b61c9" stroke="#1b61c9" stroke-width="9.9" stroke-linejoin="round"/>
  </g>
</svg>
